<svg width="720" height="614" xmlns="http://www.w3.org/2000/svg" xmlns:xlink="http://www.w3.org/1999/xlink" overflow="hidden"><defs><clipPath id="clip0"><rect x="291" y="77" width="720" height="614"/></clipPath></defs><g clip-path="url(#clip0)" transform="translate(-291 -77)"><path d="M2.14731-1.58119 48.2699 61.0547 43.9753 64.2171-2.14731 1.58119ZM50.9833 55.7451 54.0286 73.3725 38.0995 65.2322Z" transform="matrix(1 0 0 -1 512.5 350.873)"/><rect x="295.5" y="351.5" width="281" height="336" stroke="#000000" stroke-width="5.33333" stroke-linecap="round" stroke-miterlimit="8" fill="none"/><text font-family="Arial,Arial_MSFontService,sans-serif" font-weight="700" font-size="21" transform="translate(304.386 377)">End <tspan font-size="21" x="46.1667" y="0">Entity 1</tspan></text><rect x="560.5" y="80.5001" width="197" height="193" stroke="#000000" stroke-width="5.33333" stroke-linecap="round" stroke-miterlimit="8" fill="none"/><text font-family="Arial,Arial_MSFontService,sans-serif" font-weight="700" font-size="21" transform="translate(569.14 106)">CA</text><path d="M311.5 404.334C311.5 397.798 316.798 392.5 323.334 392.5L548.667 392.5C555.202 392.5 560.5 397.798 560.5 404.334L560.5 451.667C560.5 458.202 555.202 463.5 548.667 463.5L323.334 463.5C316.798 463.5 311.5 458.202 311.5 451.667Z" stroke="#000000" stroke-width="5.33333" stroke-linecap="round" stroke-miterlimit="8" fill="none" fill-rule="evenodd"/><text font-family="Arial,Arial_MSFontService,sans-serif" font-weight="400" font-size="21" transform="translate(361.424 424)">Key <tspan font-size="21" x="42.6667" y="0">Generation</tspan><tspan font-size="19" x="-21.2533" y="23">(Private &amp; Public Keys)</tspan></text><path d="M311.5 507.334C311.5 500.798 316.798 495.5 323.334 495.5L548.667 495.5C555.202 495.5 560.5 500.798 560.5 507.334L560.5 554.667C560.5 561.202 555.202 566.5 548.667 566.5L323.334 566.5C316.798 566.5 311.5 561.202 311.5 554.667Z" stroke="#000000" stroke-width="5.33333" stroke-linecap="round" stroke-miterlimit="8" fill="none" fill-rule="evenodd"/><text font-family="Arial,Arial_MSFontService,sans-serif" font-weight="400" font-size="21" transform="translate(357.338 528)">CSR Generation<tspan font-size="19" x="27.92" y="23">(</tspan><tspan font-size="19" x="34.0867" y="23">Public Key)</tspan></text><path d="M578.5 125.167C578.5 120.38 582.38 116.5 587.167 116.5L729.833 116.5C734.62 116.5 738.5 120.38 738.5 125.167L738.5 159.833C738.5 164.62 734.62 168.5 729.833 168.5L587.167 168.5C582.38 168.5 578.5 164.62 578.5 159.833Z" stroke="#000000" stroke-width="5.33333" stroke-linecap="round" stroke-miterlimit="8" fill="none" fill-rule="evenodd"/><text font-family="Arial,Arial_MSFontService,sans-serif" font-weight="400" font-size="21" transform="translate(623.913 137)">Identity <tspan font-size="21" x="-17.66" y="25">Verification</tspan></text><path d="M580.5 207.667C580.5 202.052 585.052 197.5 590.667 197.5L727.333 197.5C732.948 197.5 737.5 202.052 737.5 207.667L737.5 248.333C737.5 253.948 732.948 258.5 727.333 258.5L590.667 258.5C585.052 258.5 580.5 253.948 580.5 248.333Z" stroke="#000000" stroke-width="5.33333" stroke-linecap="round" stroke-miterlimit="8" fill="none" fill-rule="evenodd"/><text font-family="Arial,Arial_MSFontService,sans-serif" font-weight="400" font-size="21" transform="translate(610.326 223)">Certificate <tspan font-size="21" x="-4.74664" y="25">Generation</tspan></text><path d="M311.5 611.334C311.5 604.798 316.798 599.5 323.334 599.5L548.667 599.5C555.202 599.5 560.5 604.798 560.5 611.334L560.5 658.667C560.5 665.202 555.202 670.5 548.667 670.5L323.334 670.5C316.798 670.5 311.5 665.202 311.5 658.667Z" stroke="#000000" stroke-width="5.33333" stroke-linecap="round" stroke-miterlimit="8" fill="none" fill-rule="evenodd"/><text font-family="Arial,Arial_MSFontService,sans-serif" font-weight="400" font-size="21" transform="translate(387.504 631)">Certificate<tspan font-size="19" x="-53.5" y="23">(</tspan><tspan font-size="19" x="-47.3333" y="23">Public Key &amp; Signature)</tspan></text><path d="M439.167 463.5 439.167 480.204 433.833 480.204 433.833 463.5ZM444.5 477.537 436.5 493.537 428.5 477.537Z"/><path d="M661.167 168.5 661.167 183.956 655.833 183.956 655.833 168.5ZM666.5 181.29 658.5 197.29 650.5 181.29Z"/><text font-family="Arial,Arial_MSFontService,sans-serif" font-weight="400" font-size="21" transform="translate(406.246 307)">Networking <tspan font-size="21" x="-22.6534" y="25">CSR Transfer </tspan></text><rect x="726.5" y="351.5" width="281" height="336" stroke="#000000" stroke-width="5.33333" stroke-linecap="round" stroke-miterlimit="8" fill="none"/><text font-family="Arial,Arial_MSFontService,sans-serif" font-weight="700" font-size="21" transform="translate(735.841 377)">End <tspan font-size="21" x="46.1666" y="0">Entity 2</tspan></text><path d="M743.5 507.334C743.5 500.798 748.798 495.5 755.333 495.5L979.667 495.5C986.202 495.5 991.5 500.798 991.5 507.334L991.5 554.667C991.5 561.202 986.202 566.5 979.667 566.5L755.333 566.5C748.798 566.5 743.5 561.202 743.5 554.667Z" stroke="#000000" stroke-width="5.33333" stroke-linecap="round" stroke-miterlimit="8" fill="none" fill-rule="evenodd"/><text font-family="Arial,Arial_MSFontService,sans-serif" font-weight="400" font-size="21" transform="translate(809.167 526)">End Entity 1<tspan font-size="21" x="9.5" y="25">Certificate</tspan></text><path d="M743.5 404.334C743.5 397.798 748.798 392.5 755.333 392.5L979.667 392.5C986.202 392.5 991.5 397.798 991.5 404.334L991.5 451.667C991.5 458.202 986.202 463.5 979.667 463.5L755.333 463.5C748.798 463.5 743.5 458.202 743.5 451.667Z" stroke="#000000" stroke-width="5.33333" stroke-linecap="round" stroke-miterlimit="8" fill="none" fill-rule="evenodd"/><text font-family="Arial,Arial_MSFontService,sans-serif" font-weight="400" font-size="21" transform="translate(851.921 423)">CA<tspan font-size="21" x="-33.2534" y="25">Certificate</tspan></text><path d="M743.5 611.334C743.5 604.798 748.798 599.5 755.333 599.5L979.667 599.5C986.202 599.5 991.5 604.798 991.5 611.334L991.5 658.667C991.5 665.202 986.202 670.5 979.667 670.5L755.333 670.5C748.798 670.5 743.5 665.202 743.5 658.667Z" stroke="#000000" stroke-width="5.33333" stroke-linecap="round" stroke-miterlimit="8" fill="none" fill-rule="evenodd"/><text font-family="Arial,Arial_MSFontService,sans-serif" font-weight="400" font-size="21" transform="translate(818.664 630)">Certificate<tspan font-size="21" x="-4.07336" y="25">Verification</tspan></text><path d="M870.167 566.5 870.167 586.028 864.833 586.028 864.833 566.5ZM875.5 583.361 867.5 599.361 859.5 583.361Z"/><text font-family="Arial,Arial_MSFontService,sans-serif" font-weight="400" font-size="21" transform="translate(585.239 547)">Networking<tspan font-size="21" x="0" y="25">Session</tspan><tspan font-size="21" x="0" y="51">Establishment</tspan></text><path d="M591.833 477.833 709.989 477.833C711.462 477.833 712.656 479.027 712.656 480.5 712.656 481.973 711.462 483.167 709.989 483.167L591.833 483.167C590.361 483.167 589.167 481.973 589.167 480.5 589.167 479.027 590.361 477.833 591.833 477.833ZM594.5 488.5 578.5 480.5 594.5 472.5ZM707.322 472.5 723.322 480.5 707.322 488.5Z"/><text font-family="Arial,Arial_MSFontService,sans-serif" font-weight="400" font-size="21" transform="translate(691.598 307)">Networking <tspan font-size="21" x="-73.82" y="25">Certificate Transfer </tspan><tspan font-weight="700" font-size="21" x="62.399" y="112">9.</tspan><tspan font-weight="700" font-size="21" x="61.587" y="215">10.</tspan><tspan font-weight="700" font-size="21" x="62.399" y="318">11.</tspan><tspan font-weight="700" font-size="21" x="-369.033" y="110">1.</tspan><tspan font-weight="700" font-size="21" x="-369.033" y="217">2.</tspan><tspan font-weight="700" font-size="21" x="-367.97" y="319">7</tspan><tspan font-weight="700" font-size="21" x="-356.136" y="319">.</tspan><tspan font-weight="700" font-size="21" x="-105.943" y="219">8.</tspan><tspan font-weight="700" font-size="21" x="-309.469" y="1">3</tspan><tspan font-weight="700" font-size="21" x="-297.635" y="1">.</tspan><tspan font-weight="700" font-size="21" x="-60.9515" y="0">6.</tspan><tspan font-weight="700" font-size="21" x="-100.434" y="-163">4</tspan><tspan font-weight="700" font-size="21" x="-88.6008" y="-163">.</tspan><tspan font-weight="700" font-size="21" x="-100.434" y="-84">5.</tspan></text><path d="M2.14731-1.5812 48.5158 61.3884 44.2212 64.5508-2.14731 1.5812ZM51.2292 56.0787 54.2744 73.7061 38.3453 65.5659Z" transform="matrix(-1 0 0 1 632.774 274.5)"/></g></svg>